<?xml version="1.0" encoding="UTF-8"?>
<svg width="18px" height="18px" viewBox="0 0 18 18" version="1.1" xmlns="http://www.w3.org/2000/svg" xmlns:xlink="http://www.w3.org/1999/xlink">
    <!-- Generator: Sketch 42 (36781) - http://www.bohemiancoding.com/sketch -->
    <title>Group 9</title>
    <desc>Created with Sketch.</desc>
    <defs></defs>
    <g id="Conversation" stroke="none" stroke-width="1" fill="none" fill-rule="evenodd">
        <g id="Detail-view-V3" transform="translate(-134.000000, -867.000000)">
            <g id="Group-4" transform="translate(44.000000, 861.000000)">
                <g id="Group-9" transform="translate(90.000000, 6.000000)">
                    <rect id="Rectangle-4" fill="#03C103" x="0" y="0" width="18" height="18"></rect>
                    <path d="M17.95153,3.70391144 C17.2910931,3.99297417 16.5811999,4.18825092 15.8363011,4.27610332 C16.5965484,3.82639114 17.1806015,3.11427306 17.4556189,2.26568266 C16.7439305,2.6821845 15.9557685,2.98453137 15.1168037,3.14748339 C14.4450574,2.44121033 13.4878818,2 12.428562,2 C10.3946535,2 8.7455541,3.62695203 8.7455541,5.6337417 C8.7455541,5.91855351 8.77811818,6.1959262 8.84092161,6.46187454 C5.78004199,6.31034686 3.06620136,4.86361624 1.24976673,2.66509225 C0.932706792,3.20177122 0.751088461,3.8260369 0.751088461,4.49201476 C0.751088461,5.75276753 1.40126867,6.86500369 2.3895543,7.51663469 C1.78582637,7.49777122 1.21790276,7.33428782 0.721391244,7.06214022 C0.721041189,7.07728413 0.721041189,7.09242804 0.721041189,7.10783764 C0.721041189,8.86845461 1.99058243,10.3370775 3.6753695,10.671014 C3.3663698,10.7540399 3.0409983,10.7984974 2.70510721,10.7984974 C2.467779,10.7984974 2.23706592,10.7756664 2.01215119,10.7332812 C2.48082078,12.1768945 3.8409634,13.2275897 5.45259799,13.2567882 C4.19214022,14.231507 2.60412985,14.8124487 0.878573053,14.8124487 C0.581285828,14.8124487 0.288101426,14.7951882 0,14.7616325 C1.62987334,15.792637 3.56580233,16.3943321 5.64564875,16.3943321 C12.4199461,16.3943321 16.1245138,10.857169 16.1245138,6.05511439 C16.1245138,5.89756458 16.1208337,5.74090037 16.1137429,5.58503321 C16.8334189,5.07261993 17.4577731,4.43267897 17.95153,3.70391144" id="path" fill="#FFFFFF"></path>
                </g>
            </g>
        </g>
    </g>
</svg>