<?xml version="1.0" encoding="UTF-8"?>
<svg width="18px" height="18px" viewBox="0 0 18 18" version="1.1" xmlns="http://www.w3.org/2000/svg" xmlns:xlink="http://www.w3.org/1999/xlink">
    <!-- Generator: Sketch 42 (36781) - http://www.bohemiancoding.com/sketch -->
    <title>Group 10</title>
    <desc>Created with Sketch.</desc>
    <defs></defs>
    <g id="Conversation" stroke="none" stroke-width="1" fill="none" fill-rule="evenodd">
        <g id="Detail-view-V3" transform="translate(-224.000000, -867.000000)">
            <g id="Group-3" transform="translate(218.000000, 861.000000)">
                <g id="Group-10" transform="translate(6.000000, 6.000000)">
                    <rect id="Rectangle-4" fill="#03C103" x="0" y="0" width="18" height="18"></rect>
                    <g id="Layer_1" transform="translate(4.000000, 0.000000)" fill="#FFFFFF">
                        <path d="M6.09158427,17.9920365 L6.09158427,10.1532388 L8.7227191,10.1532388 L9.11664607,7.09829494 L6.09150843,7.09829494 L6.09150843,5.14784831 C6.09150843,4.26337079 6.33708708,3.66064888 7.60548034,3.66064888 L9.22312921,3.65989045 L9.22312921,0.927581461 C8.94334551,0.890418539 7.98302528,0.807219101 6.8659382,0.807219101 C4.53354775,0.807219101 2.93675562,2.23086236 2.93675562,4.84538764 L2.93675562,7.09829494 L0.298870787,7.09829494 L0.298870787,10.1532388 L2.93675562,10.1532388 L2.93675562,17.9919607 L6.09158427,17.9919607 L6.09158427,17.9920365 Z" id="Combined-Shape"></path>
                    </g>
                </g>
            </g>
        </g>
    </g>
</svg>