<?xml version="1.0" encoding="UTF-8"?>
<svg width="18px" height="18px" viewBox="0 0 18 18" version="1.1" xmlns="http://www.w3.org/2000/svg" xmlns:xlink="http://www.w3.org/1999/xlink">
    <!-- Generator: Sketch 42 (36781) - http://www.bohemiancoding.com/sketch -->
    <title>clock</title>
    <desc>Created with Sketch.</desc>
    <defs></defs>
    <g id="Conversation" stroke="none" stroke-width="1" fill="none" fill-rule="evenodd">
        <g id="Detail-view-V3" transform="translate(-15.000000, -461.000000)" fill="#819081">
            <path d="M24,479 C28.9740933,479 33,474.958549 33,470 C33,465.025907 28.9585492,461 24,461 C19.0414508,461 15,465.025907 15,470 C15,474.958549 19.0259067,479 24,479 L24,479 Z M24,462.259067 C28.2746114,462.259067 31.7409326,465.725389 31.7409326,470 C31.7409326,474.274611 28.2746114,477.740933 24,477.740933 C19.7253886,477.740933 16.2590674,474.259067 16.2590674,470 C16.2590674,465.725389 19.7253886,462.259067 24,462.259067 Z M23.5803109,471.056995 L26.5803109,471.056995 C26.9378238,471.056995 27.2176166,470.777202 27.2176166,470.419689 C27.2176166,470.062176 26.9378238,469.782383 26.5803109,469.782383 L24.2176166,469.782383 L24.2176166,466.082902 C24.2176166,465.725389 23.9378238,465.445596 23.5803109,465.445596 C23.2227979,465.445596 22.9430052,465.725389 22.9430052,466.082902 L22.9430052,470.419689 C22.9430052,470.777202 23.2227979,471.056995 23.5803109,471.056995 L23.5803109,471.056995 Z" id="clock"></path>
        </g>
    </g>
</svg>