<?xml version="1.0" encoding="UTF-8"?>
<svg width="18px" height="18px" viewBox="0 0 18 18" version="1.1" xmlns="http://www.w3.org/2000/svg" xmlns:xlink="http://www.w3.org/1999/xlink">
    <!-- Generator: Sketch 42 (36781) - http://www.bohemiancoding.com/sketch -->
    <title>Group 8</title>
    <desc>Created with Sketch.</desc>
    <defs></defs>
    <g id="Conversation" stroke="none" stroke-width="1" fill="none" fill-rule="evenodd">
        <g id="Detail-view-V3" transform="translate(-44.000000, -867.000000)">
            <g id="Group-5" transform="translate(38.000000, 861.000000)">
                <g id="Group-8" transform="translate(6.000000, 6.000000)">
                    <rect id="Rectangle-4" fill="#03C103" x="0" y="0" width="18" height="18"></rect>
                    <path d="M8.991,0 C4.023,0 0,4.032 0,9 C0,13.968 4.023,18 8.991,18 C13.968,18 18,13.968 18,9 C18,4.032 13.968,0 8.991,0 L8.991,0 Z M15.228,5.4 L12.573,5.4 C12.285,4.275 11.871,3.195 11.331,2.196 C12.987,2.763 14.364,3.915 15.228,5.4 L15.228,5.4 Z M9,1.836 C9.747,2.916 10.332,4.113 10.719,5.4 L7.281,5.4 C7.668,4.113 8.253,2.916 9,1.836 L9,1.836 Z M2.034,10.8 C1.89,10.224 1.8,9.621 1.8,9 C1.8,8.379 1.89,7.776 2.034,7.2 L5.076,7.2 C5.004,7.794 4.95,8.388 4.95,9 C4.95,9.612 5.004,10.206 5.076,10.8 L2.034,10.8 L2.034,10.8 Z M2.772,12.6 L5.427,12.6 C5.715,13.725 6.129,14.805 6.669,15.804 C5.013,15.237 3.636,14.094 2.772,12.6 L2.772,12.6 Z M5.427,5.4 L2.772,5.4 C3.636,3.906 5.013,2.763 6.669,2.196 C6.129,3.195 5.715,4.275 5.427,5.4 L5.427,5.4 Z M9,16.164 C8.253,15.084 7.668,13.887 7.281,12.6 L10.719,12.6 C10.332,13.887 9.747,15.084 9,16.164 L9,16.164 Z M11.106,10.8 L6.894,10.8 C6.813,10.206 6.75,9.612 6.75,9 C6.75,8.388 6.813,7.785 6.894,7.2 L11.106,7.2 C11.187,7.785 11.25,8.388 11.25,9 C11.25,9.612 11.187,10.206 11.106,10.8 L11.106,10.8 Z M11.331,15.804 C11.871,14.805 12.285,13.725 12.573,12.6 L15.228,12.6 C14.364,14.085 12.987,15.237 11.331,15.804 L11.331,15.804 Z M12.924,10.8 C12.996,10.206 13.05,9.612 13.05,9 C13.05,8.388 12.996,7.794 12.924,7.2 L15.966,7.2 C16.11,7.776 16.2,8.379 16.2,9 C16.2,9.621 16.11,10.224 15.966,10.8 L12.924,10.8 L12.924,10.8 Z" id="Shape-Copy" fill="#FFFFFF"></path>
                </g>
            </g>
        </g>
    </g>
</svg>