<?xml version="1.0" encoding="UTF-8"?>
<svg width="18px" height="18px" viewBox="0 0 18 18" version="1.1" xmlns="http://www.w3.org/2000/svg" xmlns:xlink="http://www.w3.org/1999/xlink">
    <!-- Generator: Sketch 42 (36781) - http://www.bohemiancoding.com/sketch -->
    <title>correct</title>
    <desc>Created with Sketch.</desc>
    <defs></defs>
    <g id="Conversation" stroke="none" stroke-width="1" fill="none" fill-rule="evenodd">
        <g id="Detail-view-V3" transform="translate(-17.000000, -720.000000)" fill="#819081">
            <path d="M22.2820546,728.471204 L22.2820546,728.471204 L24.7175393,730.903758 L31.620665,722.645468 C31.8533546,722.382071 32.2566833,722.351083 32.5203982,722.567998 C32.7841131,722.800408 32.8151384,723.203251 32.5979614,723.466649 L25.2604818,732.251734 C25.1363807,732.39118 24.9657416,732.46865 24.7951025,732.484144 L24.7640773,732.484144 C24.5934382,732.484144 24.4383118,732.422168 24.3142106,732.298216 L21.3823213,729.369854 C21.1341191,729.121951 21.1341191,728.719107 21.3823213,728.471204 C21.6305236,728.2233 22.0338523,728.2233 22.2820546,728.471204 Z M30.751957,721.374962 L30.751957,721.374962 C31.0466972,721.56089 31.1397731,721.948239 30.9536214,722.242625 C30.7674697,722.53701 30.3796536,722.629974 30.0849134,722.444046 C27.0134103,720.538287 23.0887119,720.987613 20.5136134,723.544119 C17.5041609,726.549951 17.5041609,731.461541 20.5136134,734.467373 C23.5230659,737.473205 28.4405734,737.473205 31.4500259,734.467373 C34.0251245,731.895373 34.4749911,727.959902 32.5359108,724.892095 C32.3497591,724.597709 32.442835,724.21036 32.7375752,724.024432 C33.0323154,723.838504 33.4201314,723.931468 33.6062831,724.225854 C35.8556162,727.789469 35.343699,732.375686 32.3497591,735.366024 C30.5968306,737.116843 28.285447,738 25.989576,738 C23.693705,738 21.3823213,737.116843 19.6293928,735.366024 C16.1235357,731.864385 16.1235357,726.147107 19.6293928,722.645468 C22.60782,719.670624 27.1840494,719.143829 30.751957,721.374962 Z" id="correct"></path>
        </g>
    </g>
</svg>