<?xml version="1.0" encoding="UTF-8"?>
<svg width="18px" height="18px" viewBox="0 0 18 18" version="1.1" xmlns="http://www.w3.org/2000/svg" xmlns:xlink="http://www.w3.org/1999/xlink">
    <!-- Generator: Sketch 42 (36781) - http://www.bohemiancoding.com/sketch -->
    <title>cancel</title>
    <desc>Created with Sketch.</desc>
    <defs></defs>
    <g id="Conversation" stroke="none" stroke-width="1" fill="none" fill-rule="evenodd">
        <g id="Faciliteiten" transform="translate(-321.000000, -105.000000)" fill="#03C103">
            <path d="M321.185886,122.814114 C321.309811,122.938038 321.464716,123 321.635112,123 C321.805508,123 321.960413,122.938038 322.084337,122.814114 L330,114.898451 L337.915663,122.814114 C338.039587,122.938038 338.194492,123 338.364888,123 C338.519793,123 338.690189,122.938038 338.814114,122.814114 C339.061962,122.566265 339.061962,122.163511 338.814114,121.915663 L330.898451,114 L338.814114,106.084337 C339.061962,105.836489 339.061962,105.433735 338.814114,105.185886 C338.566265,104.938038 338.163511,104.938038 337.915663,105.185886 L330,113.101549 L322.084337,105.185886 C321.836489,104.938038 321.433735,104.938038 321.185886,105.185886 C320.938038,105.433735 320.938038,105.836489 321.185886,106.084337 L329.101549,114 L321.185886,121.915663 C320.938038,122.163511 320.938038,122.566265 321.185886,122.814114 L321.185886,122.814114 Z" id="cancel"></path>
        </g>
    </g>
</svg>