<?xml version="1.0" encoding="UTF-8"?>
<svg width="18px" height="18px" viewBox="0 0 18 18" version="1.1" xmlns="http://www.w3.org/2000/svg" xmlns:xlink="http://www.w3.org/1999/xlink">
    <!-- Generator: Sketch 42 (36781) - http://www.bohemiancoding.com/sketch -->
    <title>Group 11</title>
    <desc>Created with Sketch.</desc>
    <defs></defs>
    <g id="Conversation" stroke="none" stroke-width="1" fill="none" fill-rule="evenodd">
        <g id="Detail-view-V3" transform="translate(-314.000000, -867.000000)">
            <g id="Group-2" transform="translate(224.000000, 861.000000)">
                <g id="Group-6">
                    <g id="Group-11" transform="translate(90.000000, 6.000000)">
                        <rect id="Rectangle-4" fill="#03C103" x="0" y="0" width="18" height="18"></rect>
                        <g id="Group-7">
                            <path d="M9,18 C6.53475,18 6.244875,17.990625 5.281875,17.946 C4.53303178,17.9349055 3.79164654,17.7953805 3.09,17.5335 C1.88365066,17.0683268 0.930173225,16.1148493 0.465,14.9085 C0.202050907,14.2076719 0.0624877779,13.4665917 0.0525,12.718125 C0.029625,12.233625 0.015,11.9085 0.00825,11.368125 C0.00225,10.870125 0,10.187625 0,9 C0,6.532875 0.009375,6.243375 0.054,5.2815 C0.065137323,4.53278302 0.204661668,3.79152822 0.4665,3.09 C0.932115247,1.88393825 1.88543825,0.930615247 3.0915,0.465 C3.79224247,0.202210206 4.53317158,0.0626516395 5.2815,0.0525 C6.24075,0.009375 6.535125,0 9,0 C11.464875,0 11.757375,0.009375 12.718125,0.054 C13.4669861,0.0649164608 14.2084015,0.204447148 14.91,0.4665 C16.116114,0.932034953 17.069465,1.885386 17.535,3.0915 C17.7980808,3.79229125 17.9376483,4.53339467 17.9475,5.281875 C17.990625,6.241875 18,6.536625 18,9 C18,11.463375 17.990625,11.753625 17.946,12.718125 C17.9350407,13.4668599 17.7955107,14.2081448 17.5335,14.909625 C17.0679249,16.1157129 16.1145879,17.0690499 14.9085,17.534625 C14.2077575,17.7974148 13.4668284,17.9369734 12.7185,17.947125 C11.75775,17.990625 11.462625,18 9,18 Z M14.5,5 C15.3284271,5 16,4.32842712 16,3.5 C16,2.67157288 15.3284271,2 14.5,2 C13.6715729,2 13,2.67157288 13,3.5 C13,4.32842712 13.6715729,5 14.5,5 Z" id="Combined-Shape" fill="#FFFFFF"></path>
                            <path d="M9,14 C6.23857625,14 4,11.7614237 4,9 C4,6.23857625 6.23857625,4 9,4 C11.7614237,4 14,6.23857625 14,9 C14,11.7614237 11.7614237,14 9,14 Z M9,12 C10.6568542,12 12,10.6568542 12,9 C12,7.34314575 10.6568542,6 9,6 C7.34314575,6 6,7.34314575 6,9 C6,10.6568542 7.34314575,12 9,12 Z" id="Combined-Shape" fill="#03C103"></path>
                        </g>
                    </g>
                </g>
            </g>
        </g>
    </g>
</svg>