<?xml version="1.0" encoding="UTF-8"?>
<svg width="17px" height="18px" viewBox="0 0 17 18" version="1.1" xmlns="http://www.w3.org/2000/svg" xmlns:xlink="http://www.w3.org/1999/xlink">
    <!-- Generator: Sketch 42 (36781) - http://www.bohemiancoding.com/sketch -->
    <title>telephone-1</title>
    <desc>Created with Sketch.</desc>
    <defs></defs>
    <g id="Conversation" stroke="none" stroke-width="1" fill="none" fill-rule="evenodd">
        <g id="Detail-view-V3" transform="translate(-16.000000, -631.000000)" fill="#819081">
            <path d="M31.9015122,633.529586 C31.3108311,632.833474 30.5219861,632.426458 29.9846568,632.179205 C28.6699151,631.574387 27.2484697,631.220626 25.5069132,631.060862 C25.0534226,631.022823 24.5999319,631 24.154063,631 C22.5230211,631 20.9186551,631.270076 19.3790734,631.80262 C18.6359585,632.065089 17.6756254,632.460693 16.871537,633.164413 C16.2656125,633.704565 15.9683666,634.366441 16.0026642,635.131023 L16.0026642,635.153846 C16.0255293,635.401099 16.0217184,635.655959 16.0140967,635.926036 C16.0102859,636.108622 16.006475,636.30262 16.0140967,636.492815 C16.033151,637.413356 16.6581296,638.029586 17.5651109,638.029586 L19.9735653,638.029586 L20.007863,638.029586 C20.8996008,638.029586 21.5017144,637.41716 21.5017144,636.50803 L21.5017144,635.161454 C21.5779314,635.138631 21.6541483,635.112003 21.7303652,635.08918 C21.8485014,635.051141 21.9590159,635.013102 22.0580979,634.990279 C22.7402393,634.838123 23.4414349,634.762046 24.1959823,634.762046 C24.6075536,634.762046 25.04199,634.784869 25.4840481,634.830516 C26.0861617,634.898986 26.5510849,635.001691 26.9702779,635.161454 C26.9588454,635.496196 26.9588454,635.823331 26.9626562,636.139053 L26.9626562,636.50803 C26.9626562,637.447591 27.5723915,638.056213 28.5136704,638.056213 L29.7064651,638.056213 C29.8436555,638.056213 29.980846,638.056213 30.1142256,638.060017 C30.251416,638.060017 30.3847956,638.063821 30.5219861,638.063821 C30.6744199,638.063821 30.8077995,638.060017 30.9335574,638.056213 C31.8214844,638.052409 32.4312197,637.447591 32.450274,636.546069 L32.450274,636.534658 L32.450274,635.03973 C32.4540848,634.47295 32.2673534,633.963229 31.9015122,633.529586 L31.9015122,633.529586 Z M31.5394818,636.530854 C31.5318602,636.812342 31.4213456,637.14328 30.9297465,637.14328 L30.9145032,637.14328 C30.8001778,637.147084 30.6744199,637.150888 30.5296078,637.150888 C30.3962282,637.150888 30.2666594,637.150888 30.1332798,637.147084 C29.9960894,637.147084 29.8550881,637.14328 29.7140868,637.14328 L28.5212921,637.14328 C28.079234,637.14328 27.8848809,636.945478 27.8848809,636.50803 L27.8848809,636.131445 C27.88107,635.762468 27.88107,635.412511 27.9001243,635.051141 L27.9001243,635.024514 C27.9001243,634.62891 27.6676627,634.469146 27.4961746,634.381657 C27.4847421,634.377853 27.4771204,634.374049 27.4656879,634.366441 C26.9321695,634.145816 26.3567318,634.008876 25.5983735,633.921386 L25.5907518,633.921386 C25.1143961,633.871936 24.6494729,633.849112 24.2074148,633.849112 C23.3957047,633.849112 22.6106705,633.932798 21.8713665,634.096365 C21.7227435,634.1306 21.585553,634.176247 21.4521735,634.21809 C21.3340372,634.256128 21.2235227,634.294167 21.1244407,634.316991 C21.1091973,634.320795 21.093954,634.324598 21.0787106,634.328402 C20.8996008,634.389265 20.598544,634.556636 20.598544,635.009298 L20.598544,636.504227 C20.598544,636.78191 20.499462,637.112849 20.0192955,637.112849 L19.9964304,637.112849 L19.9849979,637.112849 L17.5689217,637.112849 C17.1535396,637.112849 16.9401322,636.896027 16.9325105,636.466188 L16.9325105,636.462384 C16.9286997,636.291209 16.9286997,636.120034 16.9325105,635.937447 C16.9363214,635.659763 16.9439431,635.374472 16.9172671,635.077768 C16.8982129,634.587067 17.0735118,634.206678 17.4812723,633.845309 C18.1672245,633.244294 19.0208539,632.894336 19.6877519,632.662299 C21.1244407,632.16399 22.6297248,631.909129 24.1578739,631.909129 C24.5770669,631.909129 25.0038816,631.928149 25.4268854,631.966188 C27.0617382,632.118343 28.3879125,632.449281 29.6035723,633.004649 C30.3466872,633.343195 30.8420971,633.685545 31.2041274,634.115385 C31.4289673,634.385461 31.5394818,634.685968 31.5394818,635.03973 L31.5394818,636.530854 L31.5394818,636.530854 Z M24.2912534,638.999577 C25.0724768,638.999577 25.7050772,639.634827 25.7050772,640.41082 C25.7050772,641.186813 25.068666,641.822063 24.2912534,641.822063 C23.5138409,641.822063 22.8774297,641.186813 22.8774297,640.41082 C22.8774297,639.634827 23.5100301,638.999577 24.2912534,638.999577 Z M24.2912534,640.909129 C24.5694452,640.909129 24.7942851,640.6847 24.7904742,640.41082 C24.7904742,640.13694 24.5656343,639.912511 24.2912534,639.912511 C24.0168726,639.912511 23.7920327,640.13694 23.7920327,640.41082 C23.7920327,640.6847 24.0168726,640.909129 24.2912534,640.909129 Z M28.0487472,638.999577 C28.8299706,638.999577 29.462571,639.634827 29.462571,640.41082 C29.462571,641.186813 28.8261598,641.822063 28.0487472,641.822063 C27.2713347,641.822063 26.6349235,641.186813 26.6349235,640.41082 C26.6349235,639.634827 27.2675239,638.999577 28.0487472,638.999577 Z M28.0487472,640.909129 C28.3231281,640.909129 28.547968,640.6847 28.547968,640.41082 C28.547968,640.13694 28.3231281,639.912511 28.0487472,639.912511 C27.7743664,639.912511 27.5495265,640.13694 27.5495265,640.41082 C27.5495265,640.6847 27.7743664,640.909129 28.0487472,640.909129 Z M20.5337597,638.999577 C21.314983,638.999577 21.9475834,639.634827 21.9475834,640.41082 C21.9475834,641.186813 21.3111722,641.822063 20.5337597,641.822063 C19.7563471,641.822063 19.1199359,641.186813 19.1199359,640.41082 C19.1199359,639.634827 19.7525363,638.999577 20.5337597,638.999577 Z M20.5337597,640.909129 C20.8119514,640.909129 21.0367913,640.6847 21.0329804,640.41082 C21.0329804,640.13694 20.8081405,639.912511 20.5337597,639.912511 C20.2593788,639.912511 20.0345389,640.13694 20.0345389,640.41082 C20.0345389,640.6847 20.2593788,640.909129 20.5337597,640.909129 Z M24.2912534,642.586644 C25.0724768,642.586644 25.7050772,643.221893 25.7050772,643.997887 C25.7050772,644.77388 25.068666,645.409129 24.2912534,645.409129 C23.5138409,645.409129 22.8774297,644.77388 22.8774297,643.997887 C22.8774297,643.221893 23.5100301,642.586644 24.2912534,642.586644 Z M24.2912534,644.5 C24.5694452,644.5 24.7942851,644.275571 24.7904742,644.001691 C24.7904742,643.727811 24.5656343,643.503381 24.2912534,643.503381 C24.0168726,643.503381 23.7920327,643.727811 23.7920327,644.001691 C23.7920327,644.275571 24.0168726,644.5 24.2912534,644.5 Z M28.0487472,642.586644 C28.8299706,642.586644 29.462571,643.221893 29.462571,643.997887 C29.462571,644.77388 28.8261598,645.409129 28.0487472,645.409129 C27.2713347,645.409129 26.6349235,644.77388 26.6349235,643.997887 C26.6349235,643.221893 27.2675239,642.586644 28.0487472,642.586644 Z M28.0487472,644.5 C28.3231281,644.5 28.547968,644.275571 28.547968,644.001691 C28.547968,643.727811 28.3231281,643.503381 28.0487472,643.503381 C27.7743664,643.503381 27.5495265,643.727811 27.5495265,644.001691 C27.5495265,644.275571 27.7743664,644.5 28.0487472,644.5 Z M20.5337597,642.586644 C21.314983,642.586644 21.9475834,643.221893 21.9475834,643.997887 C21.9475834,644.77388 21.3111722,645.409129 20.5337597,645.409129 C19.7563471,645.409129 19.1199359,644.77388 19.1199359,643.997887 C19.1199359,643.221893 19.7525363,642.586644 20.5337597,642.586644 Z M20.5337597,644.5 C20.8119514,644.5 21.0367913,644.275571 21.0329804,644.001691 C21.0329804,643.727811 20.8081405,643.503381 20.5337597,643.503381 C20.2593788,643.503381 20.0345389,643.727811 20.0345389,644.001691 C20.0345389,644.275571 20.2593788,644.5 20.5337597,644.5 Z M24.2912534,646.177515 C25.0724768,646.177515 25.7050772,646.812764 25.7050772,647.588757 C25.7050772,648.364751 25.068666,649 24.2912534,649 C23.5138409,649 22.8774297,648.364751 22.8774297,647.588757 C22.8774297,646.812764 23.5100301,646.177515 24.2912534,646.177515 Z M24.2912534,648.087067 C24.5694452,648.087067 24.7904742,647.862637 24.7904742,647.588757 C24.7904742,647.314877 24.5656343,647.090448 24.2912534,647.090448 C24.0168726,647.090448 23.7920327,647.314877 23.7920327,647.588757 C23.7920327,647.862637 24.0168726,648.087067 24.2912534,648.087067 Z M28.0487472,646.177515 C28.8299706,646.177515 29.462571,646.812764 29.462571,647.588757 C29.462571,648.364751 28.8261598,649 28.0487472,649 C27.2713347,649 26.6349235,648.364751 26.6349235,647.588757 C26.6349235,646.812764 27.2675239,646.177515 28.0487472,646.177515 Z M28.0487472,648.087067 C28.3231281,648.087067 28.547968,647.862637 28.547968,647.588757 C28.547968,647.314877 28.3231281,647.090448 28.0487472,647.090448 C27.7743664,647.090448 27.5495265,647.314877 27.5495265,647.588757 C27.5495265,647.862637 27.7743664,648.087067 28.0487472,648.087067 Z M20.5337597,646.177515 C21.314983,646.177515 21.9475834,646.812764 21.9475834,647.588757 C21.9475834,648.364751 21.3111722,649 20.5337597,649 C19.7563471,649 19.1199359,648.364751 19.1199359,647.588757 C19.1199359,646.812764 19.7525363,646.177515 20.5337597,646.177515 Z M20.5337597,648.087067 C20.8119514,648.087067 21.0329804,647.862637 21.0329804,647.588757 C21.0329804,647.314877 20.8081405,647.090448 20.5337597,647.090448 C20.2593788,647.090448 20.0345389,647.314877 20.0345389,647.588757 C20.0345389,647.862637 20.2593788,648.087067 20.5337597,648.087067 Z" id="telephone-1"></path>
        </g>
    </g>
</svg>