<?xml version="1.0" encoding="UTF-8"?>
<svg width="15px" height="18px" viewBox="0 0 15 18" version="1.1" xmlns="http://www.w3.org/2000/svg" xmlns:xlink="http://www.w3.org/1999/xlink">
    <!-- Generator: Sketch 42 (36781) - http://www.bohemiancoding.com/sketch -->
    <title>placeholder</title>
    <desc>Created with Sketch.</desc>
    <defs></defs>
    <g id="Conversation" stroke="none" stroke-width="1" fill="none" fill-rule="evenodd">
        <g id="Detail-view-V3" transform="translate(-17.000000, -400.000000)" fill="#819081">
            <path d="M24.14562,400 C20.2101273,400 17,403.224806 17,407.193798 C17,407.674419 17.0462999,408.155039 17.1388997,408.620155 C17.1388997,408.651163 17.154333,408.682171 17.154333,408.728682 C17.9414316,412.27907 23.4819879,417.612403 23.7134875,417.829457 C23.8369539,417.953488 23.9912869,418 24.14562,418 C24.299953,418 24.4542861,417.937984 24.5777525,417.829457 C24.8092521,417.596899 30.3189418,412.27907 31.1060403,408.806202 C31.1060403,408.775194 31.1214736,408.744186 31.1214736,408.713178 C31.2295067,408.217054 31.2758067,407.705426 31.2758067,407.193798 C31.29124,403.224806 28.0811126,400 24.14562,400 L24.14562,400 Z M29.8868092,408.48062 L29.8868092,408.527132 C29.3003437,411.100775 25.4574509,415.162791 24.14562,416.48062 C22.8337891,415.162791 18.975463,411.100775 18.3889974,408.465116 C18.3889974,408.434109 18.3889974,408.418605 18.3735641,408.387597 C18.2963976,407.984496 18.2500977,407.581395 18.2500977,407.178295 C18.2500977,403.922481 20.8891927,401.255814 24.1301867,401.255814 C27.3711806,401.255814 30.025709,403.906977 30.025709,407.178295 C30.025709,407.627907 29.9794091,408.062016 29.8868092,408.48062 L29.8868092,408.48062 Z M24.14562,404.046512 C22.8183558,404.046512 21.7534578,405.131783 21.7534578,406.449612 C21.7534578,407.767442 22.8337891,408.852713 24.14562,408.852713 C25.4574509,408.852713 26.5377822,407.782946 26.5377822,406.449612 C26.5377822,405.116279 25.4728842,404.046512 24.14562,404.046512 Z M24.14562,407.596899 C23.5128545,407.596899 23.0035554,407.085271 23.0035554,406.449612 C23.0035554,405.813953 23.5128545,405.302326 24.14562,405.302326 C24.7783855,405.302326 25.2876845,405.813953 25.2876845,406.449612 C25.2876845,407.085271 24.7783855,407.596899 24.14562,407.596899 Z" id="placeholder"></path>
        </g>
    </g>
</svg>